REM DIRINDEX 1\2\5,1\2\6,1\2\7,1\2\8,1\3\9,1\3\10,1\3\11,1\4\12,1\4\13,1\4\14,1\4\15,1\4\16
REM DIRNAME cjc034,folder01,folder02,folder03,folder04,folder05,folder06,folder07,folder08,folder09,folder10,folder11,folder12,folder13,folder14,folder15
TITLE ""
FILE "1200_sec05_1441_1447.mp3" MP3
  TRACK 01 AUDIO
    TITLE "0:"
    INDEX 01 00:00:00
  TRACK 02 AUDIO
    TITLE "16:cjc034_09505"
    INDEX 01 00:03:25
  TRACK 03 AUDIO
    TITLE "0:"
    INDEX 01 00:08:19
  TRACK 04 AUDIO
    TITLE "16:cjc034_09506"
    INDEX 01 00:08:68
  TRACK 05 AUDIO
    TITLE "0:"
    INDEX 01 00:10:43
  TRACK 06 AUDIO
    TITLE "12:cjc034_09507"
    INDEX 01 00:11:46
  TRACK 07 AUDIO
    TITLE "0:"
    INDEX 01 00:12:61
  TRACK 08 AUDIO
    TITLE "13:cjc034_09508"
    INDEX 01 00:13:16
  TRACK 09 AUDIO
    TITLE "0:"
    INDEX 01 00:15:01
  TRACK 10 AUDIO
    TITLE "14:cjc034_09509"
    INDEX 01 00:15:32
  TRACK 11 AUDIO
    TITLE "0:"
    INDEX 01 00:16:48
  TRACK 12 AUDIO
    TITLE "15:cjc034_09510"
    INDEX 01 00:17:06
  TRACK 13 AUDIO
    TITLE "0:"
    INDEX 01 00:21:49
  TRACK 14 AUDIO
    TITLE "12:cjc034_09511"
    INDEX 01 00:23:06
  TRACK 15 AUDIO
    TITLE "0:"
    INDEX 01 00:24:43
  TRACK 16 AUDIO
    TITLE "13:cjc034_09512"
    INDEX 01 00:25:03
  TRACK 17 AUDIO
    TITLE "0:"
    INDEX 01 00:26:01
  TRACK 18 AUDIO
    TITLE "14:cjc034_09513"
    INDEX 01 00:26:30
  TRACK 19 AUDIO
    TITLE "0:"
    INDEX 01 00:27:67
  TRACK 20 AUDIO
    TITLE "15:cjc034_09514"
    INDEX 01 00:28:27
  TRACK 21 AUDIO
    TITLE "0:"
    INDEX 01 00:34:34
  TRACK 22 AUDIO
    TITLE "12:cjc034_09515"
    INDEX 01 00:35:66
  TRACK 23 AUDIO
    TITLE "0:"
    INDEX 01 00:37:16
  TRACK 24 AUDIO
    TITLE "13:cjc034_09516"
    INDEX 01 00:37:52
  TRACK 25 AUDIO
    TITLE "0:"
    INDEX 01 00:39:07
  TRACK 26 AUDIO
    TITLE "14:cjc034_09517"
    INDEX 01 00:39:39
  TRACK 27 AUDIO
    TITLE "0:"
    INDEX 01 00:40:68
  TRACK 28 AUDIO
    TITLE "15:cjc034_09518"
    INDEX 01 00:41:24
  TRACK 29 AUDIO
    TITLE "0:"
    INDEX 01 00:46:64
  TRACK 30 AUDIO
    TITLE "12:cjc034_09519"
    INDEX 01 00:48:20
  TRACK 31 AUDIO
    TITLE "0:"
    INDEX 01 00:49:41
  TRACK 32 AUDIO
    TITLE "13:cjc034_09520"
    INDEX 01 00:49:74
  TRACK 33 AUDIO
    TITLE "0:"
    INDEX 01 00:51:01
  TRACK 34 AUDIO
    TITLE "14:cjc034_09521"
    INDEX 01 00:51:36
  TRACK 35 AUDIO
    TITLE "0:"
    INDEX 01 00:52:55
  TRACK 36 AUDIO
    TITLE "15:cjc034_09522"
    INDEX 01 00:53:13
  TRACK 37 AUDIO
    TITLE "0:"
    INDEX 01 00:58:58
  TRACK 38 AUDIO
    TITLE "12:cjc034_09523"
    INDEX 01 01:00:12
  TRACK 39 AUDIO
    TITLE "0:"
    INDEX 01 01:01:13
  TRACK 40 AUDIO
    TITLE "13:cjc034_09524"
    INDEX 01 01:01:46
  TRACK 41 AUDIO
    TITLE "0:"
    INDEX 01 01:02:55
  TRACK 42 AUDIO
    TITLE "14:cjc034_09525"
    INDEX 01 01:03:16
  TRACK 43 AUDIO
    TITLE "0:"
    INDEX 01 01:04:19
  TRACK 44 AUDIO
    TITLE "15:cjc034_09526"
    INDEX 01 01:04:50
  TRACK 45 AUDIO
    TITLE "0:"
    INDEX 01 01:08:01
  TRACK 46 AUDIO
    TITLE "12:cjc034_09527"
    INDEX 01 01:09:36
  TRACK 47 AUDIO
    TITLE "0:"
    INDEX 01 01:10:47
  TRACK 48 AUDIO
    TITLE "13:cjc034_09528"
    INDEX 01 01:11:05
  TRACK 49 AUDIO
    TITLE "0:"
    INDEX 01 01:13:28
  TRACK 50 AUDIO
    TITLE "14:cjc034_09529"
    INDEX 01 01:13:61
  TRACK 51 AUDIO
    TITLE "0:"
    INDEX 01 01:14:70
  TRACK 52 AUDIO
    TITLE "15:cjc034_09530"
    INDEX 01 01:15:29
  TRACK 53 AUDIO
    TITLE "0:"
    INDEX 01 01:19:07
  TRACK 54 AUDIO
    TITLE "12:cjc034_09531"
    INDEX 01 01:20:42
  TRACK 55 AUDIO
    TITLE "0:"
    INDEX 01 01:21:69
  TRACK 56 AUDIO
    TITLE "13:cjc034_09532"
    INDEX 01 01:22:25
  TRACK 57 AUDIO
    TITLE "0:"
    INDEX 01 01:24:28
  TRACK 58 AUDIO
    TITLE "14:cjc034_09533"
    INDEX 01 01:24:59
  TRACK 59 AUDIO
    TITLE "0:"
    INDEX 01 01:26:11
  TRACK 60 AUDIO
    TITLE "15:cjc034_09534"
    INDEX 01 01:26:42
  TRACK 61 AUDIO
    TITLE "0:"
    INDEX 01 01:30:62
